<svg version="1.2" xmlns="http://www.w3.org/2000/svg" viewBox="0 0 30 30" width="30" height="30">
	<title>delivery-svgrepo-com-svg</title>
	<style>
		.s0 { fill: #000000 } 
	</style>
	<path id="Layer" fill-rule="evenodd" class="s0" d="m29.9 15.4v6c0 0.6-0.5 1-1 1q0 0.3 0 0.5c0 2.5-2 4.5-4.5 4.5c-2.5 0-4.5-2-4.5-4.5q0-0.2 0-0.5h-8.9q0 0.3 0 0.5c0 2.5-2 4.5-4.5 4.5c-2.5 0-4.5-2-4.5-4.5q0-0.2 0-0.5h-1c-0.5 0-1-0.4-1-1v-17.9c0-0.6 0.5-1 1-1h19.9c0.6 0 1 0.4 1 1v4.9h3c0.5 0 0.9 0.3 1 0.7l1.7 5.3h1.3c0.5 0 1 0.5 1 1zm-8-5v4h3.6l-1.3-4zm-13 12.5c0-1.3-1.1-2.4-2.5-2.4c-1.3 0-2.4 1.1-2.4 2.4c0 1.4 1.1 2.5 2.4 2.5c1.4 0 2.5-1.1 2.5-2.5zm10.9-18.4h-17.8v15.9h0.7c0.8-1.2 2.2-2 3.7-2c1.6 0 3 0.8 3.8 2h9.6zm7 18.4c0-1.4-1.1-2.5-2.5-2.5c-1.3 0-2.4 1.1-2.4 2.5c0 1.4 1.1 2.5 2.4 2.5c1.4 0 2.5-1.1 2.5-2.5zm1-2.9v-3.6h-5.9v2.7c0.7-0.4 1.5-0.7 2.4-0.7c1.4 0 2.7 0.6 3.5 1.6z"/>
	<g id="Layer">
	</g>
	<g id="Layer">
	</g>
	<g id="Layer">
	</g>
	<g id="Layer">
	</g>
	<g id="Layer">
	</g>
	<g id="Layer">
	</g>
	<g id="Layer">
	</g>
	<g id="Layer">
	</g>
	<g id="Layer">
	</g>
	<g id="Layer">
	</g>
	<g id="Layer">
	</g>
	<g id="Layer">
	</g>
	<g id="Layer">
	</g>
	<g id="Layer">
	</g>
	<g id="Layer">
	</g>
</svg>