<svg version="1.2" xmlns="http://www.w3.org/2000/svg" viewBox="0 0 30 30" width="30" height="30">
	<title>eco-ecology-svgrepo-com-svg</title>
	<style>
		.s0 { fill: #000000 } 
	</style>
	<g id="Layer">
		<g id="Layer">
			<path id="Layer" class="s0" d="m8.2 20.9q0 0.3-0.2 0.5c-0.1 0.1-0.3 0.2-0.6 0.2h-2.9c-0.4 0-0.7-0.2-0.9-0.4q-0.3-0.4-0.3-0.9v-4.1q0-0.5 0.3-0.8q0.4-0.5 0.9-0.5h2.8q0.3 0 0.5 0.2q0.3 0.3 0.3 0.6q0 0.3-0.2 0.5q-0.3 0.2-0.6 0.2h-2.5v1h2.3q0.3 0 0.5 0.2q0.2 0.3 0.2 0.6q0 0.3-0.2 0.5q-0.2 0.2-0.5 0.2h-2.3v1.2h2.6c0.3 0 0.5 0.1 0.6 0.2q0.2 0.3 0.2 0.6z"/>
		</g>
	</g>
	<g id="Layer">
		<g id="Layer">
			<path id="Layer" class="s0" d="m14.2 19.6q-0.2 0.9-0.8 1.5q-0.8 0.6-1.9 0.6q-1.4 0-2.2-0.9q-0.8-1-0.8-2.5q0-1.5 0.8-2.5q0.8-1 2.2-1q1.1 0 1.9 0.6q0.6 0.6 0.8 1.5q0 0.3-0.2 0.6q-0.1 0.2-0.4 0.3h-0.2q-0.2 0-0.4-0.1c-0.1-0.1-0.3-0.2-0.3-0.5q-0.1-0.5-0.4-0.7q-0.3-0.2-0.8-0.2q-0.7 0-1 0.4q-0.5 0.6-0.5 1.6q0 1 0.5 1.5q0.3 0.5 1 0.5q0.5 0 0.7-0.3q0.4-0.2 0.5-0.8q0.1-0.3 0.4-0.5l0.1-0.1h0.2q0.1 0 0.2 0q0.3 0.1 0.5 0.4c0.1 0.1 0.2 0.3 0.1 0.6z"/>
		</g>
	</g>
	<g id="Layer">
		<g id="Layer">
			<path id="Layer" fill-rule="evenodd" class="s0" d="m20.9 18.3q0 1.4-0.7 2.3q-0.8 1.1-2.3 1.1q-1.5 0-2.4-1.1q-0.7-0.9-0.7-2.3q0-1.4 0.7-2.4q0.9-1.1 2.4-1.1q1.5 0 2.3 1.1q0.7 1 0.7 2.4zm-1.5 0q0-0.9-0.4-1.5q-0.3-0.5-1.1-0.5q-0.8 0-1.2 0.5q-0.4 0.5-0.4 1.5q0 0.9 0.4 1.4q0.4 0.6 1.2 0.6q0.8 0 1.1-0.6q0.4-0.5 0.4-1.4z"/>
		</g>
	</g>
	<g id="Layer">
		<g id="Layer">
			<path id="Layer" fill-rule="evenodd" class="s0" d="m28.6 9.6q-1.6 2.4-4.8 2.4q-0.8 0-1.6-0.2c1.1 1.8 1.8 3.9 1.8 6.2c0 6.6-5.4 11.9-12 11.9c-6.6 0-12-5.3-12-11.9c0-6.6 5.2-11.9 11.7-12c0.2-1.2 1.1-2.3 1.9-3.2c0.6-0.8 1.2-1.5 1.1-2c0-0.3 0.1-0.5 0.4-0.7c0.2-0.1 0.5-0.1 0.7 0c1.3 0.6 2.9 1.9 3.6 3.5c1.4-1.5 3.6-2 5.5-2.3c1.3-0.2 2.6-0.5 3.1-1q0.2-0.3 0.6-0.3h0.1c0.3 0.1 0.5 0.2 0.6 0.5c0.7 2.1 1.2 6.4-0.7 9.1zm-15.3-3.5q1 0.1 1.9 0.3c0.1-0.4 0.1-0.9 0-1.5c0-0.4 0.3-0.7 0.7-0.8c0.4 0 0.8 0.2 0.8 0.7c0.1 0.8 0.1 1.5-0.1 2.1q0.6 0.2 1.1 0.5q0.8-1.1 0.6-2.3c-0.2-1.3-1.2-2.5-2.3-3.2c-0.3 0.6-0.8 1.2-1.3 1.8c-0.7 0.9-1.3 1.6-1.4 2.4zm9.2 11.9c0-5.8-4.7-10.5-10.5-10.5c-5.8 0-10.5 4.7-10.5 10.5c0 5.8 4.7 10.4 10.5 10.4c5.8 0 10.5-4.6 10.5-10.4zm5.7-16c-0.9 0.4-1.9 0.6-3.1 0.8c-2.6 0.4-5 0.9-5.4 3.7q-0.1 1 0.3 1.8q0.7-0.5 1.4-0.8c0.2-0.3 0.8-1.1 0.3-2q-0.1-0.3 0-0.6q0.1-0.3 0.4-0.4c0.3-0.2 0.8-0.1 1 0.3q0.4 0.9 0.3 1.8q2.1-1 3-2.9c0.2-0.3 0.6-0.5 1-0.3q0.3 0.1 0.4 0.4q0.1 0.3 0 0.6q-0.6 1.2-1.7 2.2c0.3 0.1 0.4 0.5 0.4 0.8c-0.1 0.4-0.4 0.6-0.8 0.6h-0.1c-0.1 0-1.3-0.1-2.6 0.4l-0.2 0.1q-1 0.4-1.9 1c0.8 0.6 1.8 1 2.9 1q2.4 0 3.6-1.7c1.2-1.8 1.3-4.7 0.8-6.8z"/>
		</g>
	</g>
	<g id="Layer">
	</g>
	<g id="Layer">
	</g>
	<g id="Layer">
	</g>
	<g id="Layer">
	</g>
	<g id="Layer">
	</g>
	<g id="Layer">
	</g>
	<g id="Layer">
	</g>
	<g id="Layer">
	</g>
	<g id="Layer">
	</g>
	<g id="Layer">
	</g>
	<g id="Layer">
	</g>
	<g id="Layer">
	</g>
	<g id="Layer">
	</g>
	<g id="Layer">
	</g>
	<g id="Layer">
	</g>
</svg>