<svg id="Layer_1" data-name="Layer 1" xmlns="http://www.w3.org/2000/svg" viewBox="0 0 500 500"><defs><style>.cls-1{fill:#74bc17;}.cls-2{fill:none;stroke:#000;stroke-linecap:round;stroke-linejoin:round;stroke-width:15px;}</style></defs><title>parsley</title><path class="cls-1" d="M250,267.57c60-19,99.47-51.58,100.16-74.93.8-26.74-30.6-12.81-30.6-12.81s30.6-26.93,18.9-42.18c-12.29-16-50.61,18.26-50.61,18.26,30.15-32.22,42.94-59.35,32.61-75.7C310.91,65.09,287,89.92,287,89.92s23.38-33.6,9.71-47.7c-12.64-13-28.5,12.09-28.5,12.09C278.62,6.4,250,7.37,250,7.37s-28.62-1-18.21,46.94c0,0-15.86-25.14-28.5-12.09-13.67,14.1,9.71,47.7,9.71,47.7s-23.91-24.83-33.46-9.71c-10.33,16.35,2.46,43.48,32.61,75.7,0,0-38.32-34.27-50.61-18.26-11.7,15.25,18.9,42.18,18.9,42.18s-31.4-13.93-30.6,12.81C150.53,216,190,248.61,250,267.57Z"/><path class="cls-1" d="M204.12,374.78c11.52-53,4-96.55-13.14-107.08-19.66-12.06-22.7,17.4-22.7,17.4s-7-34.43-23.46-32.21c-17.24,2.33-8,45.69-8,45.69-11.18-36.37-26-57.57-42.67-56.85-15.4.66-7.07,29.2-7.07,29.2S71.93,239,55.51,243.21c-15.18,3.87-3.17,26.51-3.17,26.51-31.39-28.33-42.92-6.5-42.92-6.5s-13,21,27.31,33.75c0,0-25.61,1.09-21.27,16.14,4.7,16.28,39.86,13.19,39.86,13.19s-28.83,7.25-21.61,20.87c7.81,14.74,33.59,16.8,70.63,8.06,0,0-42.08,14-35.37,30,6.4,15.29,39.66,3.94,39.66,3.94s-23.88,17.52-3.53,28.39C122.87,427.09,164.2,411.54,204.12,374.78Z"/><path class="cls-1" d="M295.88,374.78c-11.52-53-4-96.55,13.14-107.08,19.66-12.06,22.7,17.4,22.7,17.4s7-34.43,23.46-32.21c17.24,2.33,8,45.69,8,45.69,11.18-36.37,26-57.57,42.67-56.85,15.4.66,7.07,29.2,7.07,29.2s15.12-31.9,31.54-27.72c15.18,3.87,3.17,26.51,3.17,26.51,31.39-28.33,42.92-6.5,42.92-6.5s13,21-27.31,33.75c0,0,25.61,1.09,21.27,16.14-4.7,16.28-39.86,13.19-39.86,13.19s28.83,7.25,21.61,20.87c-7.81,14.74-33.59,16.8-70.63,8.06,0,0,42.08,14,35.37,30-6.4,15.29-39.66,3.94-39.66,3.94s23.88,17.52,3.53,28.39C377.13,427.09,335.8,411.54,295.88,374.78Z"/><path class="cls-2" d="M250,267.57c60-19,99.47-51.58,100.16-74.93.8-26.74-30.6-12.81-30.6-12.81s30.6-26.93,18.9-42.18c-12.29-16-50.61,18.26-50.61,18.26,30.15-32.22,42.94-59.35,32.61-75.7C310.91,65.09,287,89.92,287,89.92s23.38-33.6,9.71-47.7c-12.64-13-28.5,12.09-28.5,12.09C278.62,6.4,250,7.37,250,7.37s-28.62-1-18.21,46.94c0,0-15.86-25.14-28.5-12.09-13.67,14.1,9.71,47.7,9.71,47.7s-23.91-24.83-33.46-9.71c-10.33,16.35,2.46,43.48,32.61,75.7,0,0-38.32-34.27-50.61-18.26-11.7,15.25,18.9,42.18,18.9,42.18s-31.4-13.93-30.6,12.81C150.53,216,190,248.61,250,267.57Z"/><path class="cls-2" d="M204.12,374.78c11.52-53,4-96.55-13.14-107.08-19.66-12.06-22.7,17.4-22.7,17.4s-7-34.43-23.46-32.21c-17.24,2.33-8,45.69-8,45.69-11.18-36.37-26-57.57-42.67-56.85-15.4.66-7.07,29.2-7.07,29.2S71.93,239,55.51,243.21c-15.18,3.87-3.17,26.51-3.17,26.51-31.39-28.33-42.92-6.5-42.92-6.5s-13,21,27.31,33.75c0,0-25.61,1.09-21.27,16.14,4.7,16.28,39.86,13.19,39.86,13.19s-28.83,7.25-21.61,20.87c7.81,14.74,33.59,16.8,70.63,8.06,0,0-42.08,14-35.37,30,6.4,15.29,39.66,3.94,39.66,3.94s-23.88,17.52-3.53,28.39C122.87,427.09,164.2,411.54,204.12,374.78Z"/><line class="cls-2" x1="250" y1="267.57" x2="250" y2="491.62"/><line class="cls-2" x1="204.12" y1="374.78" x2="250" y2="403.38"/><path class="cls-2" d="M295.88,374.78c-11.52-53-4-96.55,13.14-107.08,19.66-12.06,22.7,17.4,22.7,17.4s7-34.43,23.46-32.21c17.24,2.33,8,45.69,8,45.69,11.18-36.37,26-57.57,42.67-56.85,15.4.66,7.07,29.2,7.07,29.2s15.12-31.9,31.54-27.72c15.18,3.87,3.17,26.51,3.17,26.51,31.39-28.33,42.92-6.5,42.92-6.5s13,21-27.31,33.75c0,0,25.61,1.09,21.27,16.14-4.7,16.28-39.86,13.19-39.86,13.19s28.83,7.25,21.61,20.87c-7.81,14.74-33.59,16.8-70.63,8.06,0,0,42.08,14,35.37,30-6.4,15.29-39.66,3.94-39.66,3.94s23.88,17.52,3.53,28.39C377.13,427.09,335.8,411.54,295.88,374.78Z"/><line class="cls-2" x1="295.88" y1="374.78" x2="250" y2="403.38"/></svg>