<svg version="1.2" xmlns="http://www.w3.org/2000/svg" viewBox="0 0 30 30" width="30" height="30">
	<title>phone-svgrepo-com-svg</title>
	<style>
		.s0 { fill: #66C05D } 
		.s1 { fill: #ffffff } 
		.s2 { fill: none;stroke: #ffffff;stroke-linecap: round;stroke-width: 1 } 
	</style>
	<rect id="Layer" class="s0" width="30" height="30" rx="1"></rect>
	<path id="Layer" class="s1" d="m24.6 22.4c-0.6 1.5-2.5 3-4 3l-1-0.3q-2.4-1-4.7-2.5q-2.2-1.4-4.1-3.3q-1.9-1.9-3.4-4.1q-1.5-2.2-2.5-4.7c-0.9-2.2 0.1-4.1 2.5-4.9c0.5-0.2 0.8-0.2 1.3 0c1 0.3 3.5 3.8 3.6 4.9c0.1 0.8-0.5 1.3-1.1 1.6c-1 0.7-1 1.6-0.5 2.5c0.9 2.3 2.6 3.7 4.9 4.8c0.8 0.3 1.6 0.2 2.2-0.6c0.9-1.3 2.1-1.3 3.4-0.3c0.7 0.3 1.4 0.8 1.9 1.3c0.9 0.6 2 1.2 1.5 2.6z"/>
	<path id="Layer" class="s2" d="m14.9 5.7c0 0 3.8-0.1 6.5 2.6c2.8 2.8 2.6 6.7 2.6 6.7m-8.3-6.9c0 0 2.4-0.1 4.2 1.7c1.8 1.8 1.6 4.4 1.6 4.4m-5.1-3.7c0 0 1.1-0.1 1.9 0.8c0.9 0.9 0.8 2 0.8 2"/>
</svg>