<svg version="1.2" xmlns="http://www.w3.org/2000/svg" viewBox="0 0 30 30" width="30" height="30">
	<title>vegetables-pumpkin-svgrepo-com-svg</title>
	<style>
		.s0 { fill: #000000 } 
	</style>
	<g id="Layer">
		<g id="Layer">
			<g id="Layer">
				<path id="Layer" class="s0" d="m6.6 21.1q-0.4-0.7-0.4-1.3c0-0.4 0.3-0.7 0.6-0.7c0.4 0 0.7 0.3 0.7 0.7q0 0.2 0.2 0.5c0.3 0.3 0.2 0.7-0.1 1q-0.2 0.1-0.4 0.1c-0.2 0-0.4-0.1-0.6-0.3z"/>
				<path id="Layer" class="s0" d="m9.4 22.2c0.1-0.4 0.4-0.7 0.8-0.6q0.5 0.1 1 0.2c0.4 0 0.6 0.4 0.6 0.8c-0.1 0.3-0.4 0.5-0.7 0.5q-0.1 0-0.1 0q-0.5 0-1-0.1c-0.4-0.1-0.6-0.5-0.6-0.8z"/>
				<path id="Layer" class="s0" d="m13.8 22.6c0-0.4 0.2-0.7 0.6-0.7q0.5-0.1 0.9-0.2c0.4-0.1 0.8 0.2 0.8 0.5c0.1 0.4-0.1 0.8-0.5 0.8q-0.5 0.1-1 0.2q-0.1 0-0.1 0c-0.4 0-0.7-0.2-0.7-0.6z"/>
				<path id="Layer" class="s0" d="m18 21.5c-0.1-0.3 0-0.7 0.3-0.9q0.4-0.3 0.9-0.5c0.3-0.2 0.7-0.1 0.9 0.2c0.2 0.3 0.1 0.7-0.2 0.9q-0.5 0.3-0.9 0.6q-0.2 0.1-0.4 0.1c-0.2 0-0.4-0.2-0.6-0.4z"/>
				<path id="Layer" fill-rule="evenodd" class="s0" d="m29.9 24c0 2.4-1.9 4.3-4.3 4.3h-21.3c-2.3 0-4.3-1.9-4.3-4.3c0-0.3 0.3-0.6 0.7-0.6h3.9q-0.6-0.7-1-1.5c-2.2-1.7-3.6-4.3-3.6-7.2c0-2.1 0.7-4.2 2.1-5.8c1-1.3 2.8-1.8 4.5-1.4q0.1 0 0.2 0c-0.1-0.5-0.2-0.7-0.3-0.8c-0.9-0.5-1.4-1.6-1.1-2.6c0.2-0.6 0.6-1 1.1-1.3c0.5-0.3 1.1-0.3 1.6-0.2c0.3 0.1 2.8 1 3 4.9q0.1 0 0.2-0.1c1.6-0.4 3.4 0.1 4.5 1.4q0.8 1 1.4 2.2l1.5-2.9q0 0 0 0c0.4-0.6 0.9-1 1.6-1.2c0.7-0.2 1.3-0.1 1.9 0.2v-4.5c0-0.3 0.3-0.6 0.6-0.6c0.4 0 0.7 0.3 0.7 0.6l0.1 3.4l2.2-4c0.1-0.4 0.6-0.5 0.9-0.3c0.3 0.2 0.4 0.6 0.2 0.9l-2.1 3.8l2.5-1.5c0.3-0.2 0.8-0.1 1 0.2c0.2 0.3 0.1 0.7-0.3 0.9l-3.6 2.3c0.5 0.4 0.9 0.9 1.1 1.6c0.2 0.6 0.1 1.4-0.3 2q0 0 0 0l-1.1 1.8c1-0.1 1.9 0.2 2.7 0.8c0.3-0.3 0.9-0.9 1-1.7c0.1-0.4 0.4-0.6 0.8-0.5c0.3 0 0.6 0.4 0.5 0.7c-0.2 1.2-0.9 2.1-1.4 2.5c1 1.8 0.4 4.3-1.5 5.6q-0.1 0.2-0.4 0.2c0 0-0.3 0-0.7-0.3q-1.5 1.3-3 2.4h7.2c0.3 0 0.6 0.3 0.6 0.6zm-6.9-8.7l-0.3 0.5c0.1 0.2 0.3 0.3 0.5 0.5c0.3 0.2 0.8 0.6 1.2 1.2c0.5 0.6 0.6 1.1 0.7 1.5c0.2 0.4 0.3 0.6 0.6 0.8c1.2-1.1 1.5-2.7 0.7-3.8c-0.7-1-2.1-1.2-3.4-0.7zm-5-0.6q0 1.2-0.3 2.3l0.3 0.2q1.5-0.1 2.8-1l0.6-0.8l-1.7-1c-0.4-0.2-0.5-0.6-0.3-0.9c0.2-0.3 0.6-0.5 0.9-0.3l1.8 1q0 0 0 0l2-3q0.2-0.5 0.1-1c-0.1-0.3-0.3-0.6-0.6-0.8l-2-1.1c-0.3-0.2-0.6-0.2-0.9-0.1q-0.5 0.1-0.8 0.6l-0.7 1.3l1.3 0.7c0.4 0.2 0.5 0.6 0.3 1c-0.2 0.2-0.4 0.3-0.6 0.3q-0.2 0-0.4-0.1l-1.2-0.7l-0.8 1.5q0.2 0.9 0.2 1.9zm-6.5-5.9c0.7 0.6 1.5 1.5 2 3q0.6 1.9 0.2 4.4q0.7 0.4 1.5 0.7q0.5 0.1 1 0.2q0.4-1.2 0.4-2.4c0-1.9-0.7-3.7-1.9-5.1c-0.7-0.8-1.9-1.2-3-0.9q-0.1 0.1-0.2 0.1zm-1.8 0.3v5c1 0.1 1.9 0.5 2.7 1.2q0.2-1.8-0.2-3.1c-0.7-2.2-2.3-3-2.5-3.1zm-2.5-3.6q0.1 0 0.1 0c0.3 0.2 0.8 0.8 0.9 2.2q0.8 0.1 1.6 0c-0.1-3.1-1.9-3.7-2.1-3.8q-0.3-0.1-0.6 0.1q-0.3 0.1-0.4 0.5c-0.1 0.4 0.1 0.8 0.5 1zm-1.4 6.7q-0.4 1.3-0.3 2.9c0.8-0.5 1.8-0.9 2.8-1v-5q0 0 0 0c-0.3 0.1-1.9 1-2.5 3.1zm-1.3-0.4c0.4-1.4 1.2-2.4 1.9-3q-0.1 0-0.2 0q-0.3-0.1-0.7-0.1c-0.9 0-1.8 0.4-2.4 1.1c-1.1 1.4-1.7 3.1-1.7 4.9c0 1.8 0.7 3.6 1.8 4.9c0-1.2 0.4-2.3 1.1-3.3q-0.5-2.5 0.2-4.5zm2.1 11.6h12.8c1.5-0.8 3.1-1.9 4.7-3.4q-0.1-0.3-0.2-0.6c-0.2-0.3-0.3-0.7-0.6-1.1c-0.3-0.5-0.6-0.7-0.9-0.9q-0.2-0.1-0.4-0.3c-2.6 1.8-5.3 1.6-7.2 1.1q-1.6-0.5-3-1.7c-0.8-0.7-1.8-1.1-2.9-1.1c-2.4 0-4.4 1.9-4.4 4.4c0 1.4 0.9 2.7 2.1 3.6zm21.9 1.3h-27c0.3 1.3 1.4 2.3 2.8 2.3h21.3c1.4 0 2.6-1 2.9-2.3z"/>
			</g>
		</g>
	</g>
	<g id="Layer">
	</g>
	<g id="Layer">
	</g>
	<g id="Layer">
	</g>
	<g id="Layer">
	</g>
	<g id="Layer">
	</g>
	<g id="Layer">
	</g>
	<g id="Layer">
	</g>
	<g id="Layer">
	</g>
	<g id="Layer">
	</g>
	<g id="Layer">
	</g>
	<g id="Layer">
	</g>
	<g id="Layer">
	</g>
	<g id="Layer">
	</g>
	<g id="Layer">
	</g>
	<g id="Layer">
	</g>
</svg>