<svg version="1.2" xmlns="http://www.w3.org/2000/svg" viewBox="0 0 30 30" width="30" height="30">
	<title>annual-year-svgrepo-com-svg</title>
	<style>
		.s0 { fill: #000000 } 
	</style>
	<g id="Layer">
		<g id="Layer">
			<path id="Layer" fill-rule="evenodd" class="s0" d="m30 2.5v26.5h-30v-26.5h5.4v-1.5h2.3v1.5h6.1v-1.5h2.4v1.5h6.1v-1.5h2.3v1.5zm-2.3 8.8h-25.4v15.4h25.4c0 0 0-15.4 0-15.4zm0-6.5h-3.1v1.5h-2.3v-1.5h-6.1v1.5h-2.3v-1.5h-6.2v1.5h-2.3v-1.5h-3.1v4.2h25.4c0 0 0-4.2 0-4.2z"/>
		</g>
	</g>
	<g id="Layer">
		<g id="Layer">
			<circle id="Layer" class="s0" cx="7.7" cy="15.2" r="1.2"/>
		</g>
	</g>
	<g id="Layer">
		<g id="Layer">
			<circle id="Layer" class="s0" cx="12.6" cy="15.2" r="1.2"/>
		</g>
	</g>
	<g id="Layer">
		<g id="Layer">
			<circle id="Layer" class="s0" cx="17.4" cy="15.2" r="1.2"/>
		</g>
	</g>
	<g id="Layer">
		<g id="Layer">
			<circle id="Layer" class="s0" cx="22.3" cy="15.2" r="1.2"/>
		</g>
	</g>
	<g id="Layer">
		<g id="Layer">
			<circle id="Layer" class="s0" cx="7.7" cy="19" r="1.2"/>
		</g>
	</g>
	<g id="Layer">
		<g id="Layer">
			<circle id="Layer" class="s0" cx="12.6" cy="19" r="1.2"/>
		</g>
	</g>
	<g id="Layer">
		<g id="Layer">
			<circle id="Layer" class="s0" cx="17.4" cy="19" r="1.2"/>
		</g>
	</g>
	<g id="Layer">
		<g id="Layer">
			<circle id="Layer" class="s0" cx="22.3" cy="19" r="1.2"/>
		</g>
	</g>
	<g id="Layer">
		<g id="Layer">
			<circle id="Layer" class="s0" cx="7.7" cy="22.9" r="1.2"/>
		</g>
	</g>
	<g id="Layer">
		<g id="Layer">
			<circle id="Layer" class="s0" cx="12.6" cy="22.9" r="1.2"/>
		</g>
	</g>
	<g id="Layer">
		<g id="Layer">
			<circle id="Layer" class="s0" cx="17.4" cy="22.9" r="1.2"/>
		</g>
	</g>
	<g id="Layer">
		<g id="Layer">
			<circle id="Layer" class="s0" cx="22.3" cy="22.9" r="1.2"/>
		</g>
	</g>
	<g id="Layer">
	</g>
	<g id="Layer">
	</g>
	<g id="Layer">
	</g>
	<g id="Layer">
	</g>
	<g id="Layer">
	</g>
	<g id="Layer">
	</g>
	<g id="Layer">
	</g>
	<g id="Layer">
	</g>
	<g id="Layer">
	</g>
	<g id="Layer">
	</g>
	<g id="Layer">
	</g>
	<g id="Layer">
	</g>
	<g id="Layer">
	</g>
	<g id="Layer">
	</g>
	<g id="Layer">
	</g>
</svg>